<?xml version="1.0" encoding="utf-8"?>
<svg viewBox="49.925 67.983 500 500" xmlns="http://www.w3.org/2000/svg">
  <rect style="fill: rgb(255, 237, 213); paint-order: fill;" x="49.925" y="67.983" width="500" height="500" rx="50" ry="50"/>
  <path d="M 443.536 277.952 C 443.022 295.807 435.681 312.785 423.022 325.391 L 378.468 369.971 C 365.362 383.149 347.526 390.537 328.939 390.485 L 328.875 390.485 C 289.443 390.457 257.805 357.897 258.909 318.481 C 259.132 310.584 267.817 305.89 274.544 310.03 C 277.666 311.951 279.527 315.392 279.423 319.058 C 278.637 346.927 301.007 369.953 328.888 369.971 C 342.027 370.004 354.636 364.784 363.903 355.47 L 408.457 310.916 C 435.249 283.787 422.626 237.83 385.736 228.193 C 368.83 223.776 350.847 228.594 338.414 240.873 L 324.311 254.976 C 318.587 260.414 309.121 257.616 307.274 249.94 C 306.461 246.559 307.415 242.996 309.81 240.475 L 323.913 226.372 C 351.279 198.997 395.658 198.997 423.022 226.372 C 436.642 240.025 444.06 258.673 443.536 277.952 Z M 275.577 402.871 L 261.473 416.974 C 252.181 426.327 239.527 431.565 226.343 431.514 C 188.216 431.483 164.419 390.189 183.509 357.186 C 185.668 353.453 188.305 350.019 191.353 346.97 L 235.83 302.415 C 262.719 275.384 308.788 287.598 318.753 324.4 C 320.024 329.099 320.598 333.961 320.451 338.828 C 320.23 346.723 328.639 351.898 335.588 348.143 C 338.813 346.4 340.863 343.069 340.966 339.405 C 341.464 320.156 334.05 301.546 320.451 287.914 C 293.091 260.565 248.743 260.565 221.381 287.914 L 176.852 332.469 C 138.725 370.58 156.153 435.674 208.222 449.638 C 214.116 451.218 220.191 452.021 226.291 452.028 C 244.882 452.08 262.722 444.694 275.833 431.514 L 289.937 417.41 C 295.047 411.391 291.725 402.096 283.957 400.681 C 280.977 400.137 277.91 400.939 275.577 402.871 Z" style="fill: rgb(124, 45, 18);"/>
</svg>